<?xml version="1.0" encoding="UTF-8" standalone="no"?>
<svg width="185px" height="185px" viewBox="0 0 185 185" version="1.1" xmlns="http://www.w3.org/2000/svg" xmlns:xlink="http://www.w3.org/1999/xlink">
    <!-- Generator: Sketch 3.6.1 (26313) - http://www.bohemiancoding.com/sketch -->
    <title>Group 3</title>
    <desc>Created with Sketch.</desc>
    <defs>
        <path id="path-1" d="M109,66.6754667 L109,0.65762963 L0.00068125,0.65762963 L0.00068125,66.6754667 L109,66.6754667 L109,66.6754667 Z"></path>
        <path id="path-3" d="M0,90.3430519 L109,90.3430519 L109,0.704385185 L0,0.704385185 L0,90.3430519 Z"></path>
        <path id="path-5" d="M0,41 L41,41 L41,0 L0,0 L0,41 L0,41 Z"></path>
    </defs>
    <g id="Welcome" stroke="none" stroke-width="1" fill="none" fill-rule="evenodd">
        <g id="Desktop-HD" transform="translate(-173.000000, -549.000000)">
            <g id="Group-3" transform="translate(173.000000, 549.000000)">
                <circle id="Oval-1" fill="#F2F2F2" cx="92.5" cy="92.5" r="92.5"></circle>
                <g id="Page-1" transform="translate(38.000000, 47.000000)">
                    <path d="M0,72.6371407 C0,75.1449926 2.03353125,77.1775111 4.53882813,77.1775111 L104.462875,77.1775111 C106.969875,77.1775111 109,75.1449926 109,72.6371407 L109,66.7218815 L0,66.7218815 L0,72.6371407 L0,72.6371407 Z" id="Fill-1" fill="#D1D1D1"></path>
                    <g id="Group-5" transform="translate(0.000000, 0.046756)">
                        <mask id="mask-2" fill="white">
                            <use xlink:href="#path-1"></use>
                        </mask>
                        <g id="Clip-4"></g>
                        <path d="M104.463556,0.656948148 L4.53950938,0.656948148 C2.03250938,0.656948148 0.00068125,2.68946667 0.00068125,5.19731852 L0.00068125,66.6754667 L109.000681,66.6754667 L109.000681,5.19731852 C109.000681,2.68946667 106.970556,0.656948148 104.463556,0.656948148" id="Fill-3" fill="#221F20" mask="url(#mask-2)"></path>
                    </g>
                    <mask id="mask-4" fill="white">
                        <use xlink:href="#path-3"></use>
                    </mask>
                    <g id="Clip-7"></g>
                    <path d="M5.07701563,61.9440148 L103.926391,61.9440148 L103.926391,5.78142222 L5.07701563,5.78142222 L5.07701563,61.9440148 Z" id="Fill-6" fill="#ECC55E" mask="url(#mask-4)"></path>
                    <path d="M56.0687484,71.8759259 C56.0687484,72.7414074 55.3670609,73.445037 54.5018734,73.445037 C53.6366859,73.445037 52.9349984,72.7414074 52.9349984,71.8759259 C52.9349984,71.0104444 53.6366859,70.3085185 54.5018734,70.3085185 C55.3670609,70.3085185 56.0687484,71.0104444 56.0687484,71.8759259" id="Fill-8" fill="#221F20" mask="url(#mask-4)"></path>
                    <path d="M71.5433422,88.2722 L67.8015766,77.1776815 L41.2038734,77.1776815 L37.4604047,88.2722 L71.5433422,88.2722 Z" id="Fill-9" fill="#D1D1D1" mask="url(#mask-4)"></path>
                    <path d="M71.5433422,88.2722 L77.5945453,89.9213852 C78.4461078,90.1530889 78.3507328,90.3422 77.3799516,90.3422 L31.6237953,90.3422 C30.6530141,90.3422 30.5576391,90.1530889 31.4074984,89.9213852 L37.4604047,88.2722 L71.5433422,88.2722 Z" id="Fill-10" fill="#C4C3C3" mask="url(#mask-4)"></path>
                </g>
                <g id="Page-1" transform="translate(72.000000, 60.000000)">
                    <path d="M12.7911672,17.4894469 C12.7911672,21.5990563 16.1102453,24.929025 20.2031984,24.929025 C24.2974328,24.929025 27.6165109,21.5990563 27.6165109,17.4894469 C27.6165109,13.3811188 24.2974328,10.0492281 20.2031984,10.0492281 C16.1102453,10.0492281 12.7911672,13.3811188 12.7911672,17.4894469" id="Fill-1" fill="#3B97D3"></path>
                    <g id="Group-5">
                        <mask id="mask-6" fill="white">
                            <use xlink:href="#path-5"></use>
                        </mask>
                        <g id="Clip-4"></g>
                        <path d="M20.4997438,0 C9.19591563,0 -0.00025625,9.22948437 -0.00025625,20.5749531 C-0.00025625,27.997875 3.937025,34.5143125 9.82500938,38.1332031 L9.82500938,38.1338438 C12.2792438,39.6425156 15.07365,40.6431719 18.0621656,41 L22.9360406,41 C25.9251969,40.6431719 28.7196031,39.6425156 31.1744781,38.1338438 L31.1744781,37.1632969 L31.1744781,36.5515 L31.1744781,34.4681875 C31.0982438,34.527125 31.0162438,34.578375 30.9393688,34.6366719 C30.07965,31.0703125 26.8880563,28.4174844 23.0699313,28.4174844 L17.9301969,28.4174844 C14.1127125,28.4174844 10.9198375,31.0703125 10.0601188,34.6366719 C9.98324375,34.5790156 9.90124375,34.5277656 9.82565,34.4688281 L9.82565,34.4681875 C5.68336875,31.2548125 3.00875938,26.2239844 3.00875938,20.5749531 C3.00875938,10.8951094 10.8551344,3.01990625 20.4997438,3.01990625 C30.1449938,3.01990625 37.9920094,10.8951094 37.9920094,20.5749531 C37.9920094,26.2239844 35.3167594,31.2548125 31.1744781,34.4681875 L31.1744781,38.1332031 C37.0624625,34.5143125 41.0003844,27.997875 41.0003844,20.5749531 C41.0003844,9.22948437 31.8035719,0 20.4997438,0" id="Fill-3" fill="#3B97D3" mask="url(#mask-6)"></path>
                    </g>
                </g>
            </g>
        </g>
    </g>
</svg>