<?xml version="1.0" encoding="UTF-8" standalone="no"?>
<svg width="185px" height="185px" viewBox="0 0 185 185" version="1.1" xmlns="http://www.w3.org/2000/svg" xmlns:xlink="http://www.w3.org/1999/xlink">
    <!-- Generator: Sketch 3.6.1 (26313) - http://www.bohemiancoding.com/sketch -->
    <title>Group 4</title>
    <desc>Created with Sketch.</desc>
    <defs>
        <path id="path-1" d="M39.3305185,0.00175799481 L0.362475,0.00175799481 L0.362475,21.5890553 L39.3305185,21.5890553 L39.3305185,0.00175799481 L39.3305185,0.00175799481 Z"></path>
    </defs>
    <g id="Welcome" stroke="none" stroke-width="1" fill="none" fill-rule="evenodd">
        <g id="Desktop-HD" transform="translate(-923.000000, -804.000000)">
            <g id="Group-4" transform="translate(923.000000, 804.000000)">
                <circle id="Oval-1" fill="#F2F2F2" cx="92.5" cy="92.5" r="92.5"></circle>
                <g id="Page-1" transform="translate(52.000000, 36.000000)">
                    <path d="M0,112.998945 L80.9630217,112.998945 L80.9630217,8.36133587 L0,8.36133587 L0,112.998945 Z" id="Fill-1" fill="#5BC7D9"></path>
                    <path d="M59.9086565,105.503559 L7.5897,105.503559 L7.5897,15.2393148 L73.3740261,15.2393148 L73.3740261,92.0619302 L59.9086565,92.0619302 L59.9086565,105.503559 Z" id="Fill-2" fill="#F0F1F1"></path>
                    <path d="M59.954263,105.503559 L59.9084804,92.0619302 L73.37385,92.0619302 L59.954263,105.503559 Z" id="Fill-3" fill="#E64C3B"></path>
                    <path d="M32.6658913,83.4558424 L68.2196087,83.4558424 L68.2196087,81.2548328 L32.6658913,81.2548328 L32.6658913,83.4558424 Z" id="Fill-4" fill="#D1D2D4"></path>
                    <path d="M32.6658913,76.5961466 L68.2196087,76.5961466 L68.2196087,74.3951371 L32.6658913,74.3951371 L32.6658913,76.5961466 Z" id="Fill-5" fill="#D1D2D4"></path>
                    <path d="M32.6658913,62.8767551 L68.2196087,62.8767551 L68.2196087,60.6757455 L32.6658913,60.6757455 L32.6658913,62.8767551 Z" id="Fill-6" fill="#D1D2D4"></path>
                    <path d="M32.6658913,56.0153013 L68.2196087,56.0153013 L68.2196087,53.8160498 L32.6658913,53.8160498 L32.6658913,56.0153013 Z" id="Fill-7" fill="#D1D2D4"></path>
                    <path d="M32.6658913,42.2941518 L68.2196087,42.2941518 L68.2196087,40.0949003 L32.6658913,40.0949003 L32.6658913,42.2941518 Z" id="Fill-8" fill="#D1D2D4"></path>
                    <path d="M32.6658913,35.434456 L68.2196087,35.434456 L68.2196087,33.2334465 L32.6658913,33.2334465 L32.6658913,35.434456 Z" id="Fill-9" fill="#D1D2D4"></path>
                    <g id="Group-19" transform="translate(12.326087, 0.487277)">
                        <g id="Group-12" transform="translate(8.309103, 0.000000)">
                            <mask id="mask-2" fill="white">
                                <use xlink:href="#path-1"></use>
                            </mask>
                            <g id="Clip-11"></g>
                            <path d="M33.922888,9.2215618 L28.5399098,9.2215618 C28.5892141,8.92973466 28.631475,8.62911755 28.631475,8.32322645 L28.631475,5.40143907 C28.631475,2.41812187 26.2102793,0.000878997407 23.2238446,0.000878997407 L16.467388,0.000878997407 C13.4809533,0.000878997407 11.0632793,2.41812187 11.0632793,5.40143907 L11.0632793,8.32322645 C11.0632793,8.62911755 11.1037793,8.92973466 11.1548446,9.2215618 L5.76834457,9.2215618 C2.78190978,9.2215618 0.362475,11.6388047 0.362475,14.6168479 L0.362475,16.1937692 C0.362475,19.1718124 2.78190978,21.5890553 5.76834457,21.5890553 L33.922888,21.5890553 C36.9093228,21.5890553 39.3305185,19.1718124 39.3305185,16.1937692 L39.3305185,14.6168479 C39.3305185,11.6388047 36.9093228,9.2215618 33.922888,9.2215618" id="Fill-10" fill="#E64C3B" mask="url(#mask-2)"></path>
                        </g>
                        <path d="M14.7375978,29.5747468 L5.7941413,38.5071184 L2.60696739,35.4218375 C2.04525,34.8610372 1.13311957,34.8610372 0.569641304,35.4218375 C0.00616304348,35.9843959 0.00792391304,36.8932792 0.569641304,37.4558375 L4.72353261,41.4763717 C5.00527174,41.7576508 5.37153261,41.8982904 5.74131522,41.8982904 C5.76068478,41.8982904 5.78005435,41.8930164 5.79942391,41.8930164 C6.1938587,41.9123544 6.59181522,41.7787468 6.89292391,41.4781296 L16.7749239,31.6087468 C17.056663,31.3274676 17.1975326,30.9600467 17.1975326,30.5908678 C17.1975326,30.2234468 17.056663,29.8560259 16.7749239,29.5747468 C16.2114457,29.0121884 15.3010761,29.0121884 14.7375978,29.5747468" id="Fill-13" fill="#ACD8B0"></path>
                        <path d="M14.7375978,51.7908788 L5.7941413,60.7214925 L2.60696739,57.6379696 C2.04525,57.0754112 1.13311957,57.0754112 0.569641304,57.6379696 C0.00616304348,58.2005279 0.00792391304,59.1094112 0.569641304,59.6719696 L4.72353261,63.6925037 C5.00527174,63.9720249 5.37153261,64.1126645 5.74131522,64.1126645 C5.76068478,64.1126645 5.78005435,64.1091485 5.79942391,64.1073905 C6.1938587,64.1284864 6.59181522,63.9931208 6.89292391,63.6925037 L16.7749239,53.8248788 C17.056663,53.5435997 17.1975326,53.1761787 17.1975326,52.8069998 C17.1975326,52.4378209 17.056663,52.0704 16.7749239,51.7891208 C16.2114457,51.2283205 15.3010761,51.2283205 14.7375978,51.7908788" id="Fill-15" fill="#ACD8B0"></path>
                        <path d="M14.7375978,71.9677369 L5.7941413,80.9018666 L2.60696739,77.8148277 C2.04525,77.2540273 1.13311957,77.2540273 0.569641304,77.8148277 C0.00616304348,78.377386 0.00792391304,79.2880273 0.569641304,79.8488277 L4.72353261,83.8693618 C5.00527174,84.150641 5.37153261,84.2912806 5.74131522,84.2912806 C5.76068478,84.2912806 5.78005435,84.2860066 5.79942391,84.2860066 C6.1938587,84.3053445 6.59181522,84.1717369 6.89292391,83.8711198 L16.7749239,74.0017369 C17.056663,73.7222157 17.1975326,73.3530368 17.1975326,72.9838579 C17.1975326,72.618195 17.056663,72.2490161 16.7749239,71.9677369 C16.2114457,71.4069366 15.3010761,71.4069366 14.7375978,71.9677369" id="Fill-17" fill="#ACD8B0"></path>
                    </g>
                </g>
            </g>
        </g>
    </g>
</svg>