<?xml version="1.0" encoding="UTF-8" standalone="no"?>
<svg width="185px" height="185px" viewBox="0 0 185 185" version="1.1" xmlns="http://www.w3.org/2000/svg" xmlns:xlink="http://www.w3.org/1999/xlink">
    <!-- Generator: Sketch 3.6.1 (26313) - http://www.bohemiancoding.com/sketch -->
    <title>Group</title>
    <desc>Created with Sketch.</desc>
    <defs></defs>
    <g id="Welcome" stroke="none" stroke-width="1" fill="none" fill-rule="evenodd">
        <g id="Desktop-HD" transform="translate(-173.000000, -41.000000)">
            <g id="Group" transform="translate(173.000000, 41.000000)">
                <circle id="Oval-1" fill="#F2F2F2" cx="92.5" cy="92.5" r="92.5"></circle>
                <g id="Page-1" transform="translate(41.000000, 42.000000)">
                    <path d="M0,25.6429531 L101.416969,25.6429531 L101.416969,0 L0,0 L0,25.6429531 Z" id="Fill-1" fill="#3B97D3"></path>
                    <path d="M0,101 L101.416969,101 L101.416969,25.6429531 L0,25.6429531 L0,101 Z" id="Fill-2" fill="#5BC7D9"></path>
                    <path d="M4.60647692,39.5762188 L13.1412154,39.5762188 L13.1412154,30.5840625 L4.60647692,30.5840625 L4.60647692,39.5762188 Z" id="Fill-3" fill="#3B97D3"></path>
                    <path d="M18.1644462,39.5762188 L26.7055231,39.5762188 L26.7055231,30.5840625 L18.1644462,30.5840625 L18.1644462,39.5762188 Z" id="Fill-4" fill="#3B97D3"></path>
                    <path d="M31.724,39.5762188 L40.2634923,39.5762188 L40.2634923,30.5840625 L31.724,30.5840625 L31.724,39.5762188 Z" id="Fill-5" fill="#3B97D3"></path>
                    <path d="M45.2819692,39.5762188 L53.8214615,39.5762188 L53.8214615,30.5840625 L45.2819692,30.5840625 L45.2819692,39.5762188 Z" id="Fill-6" fill="#3B97D3"></path>
                    <path d="M58.8415231,39.5762188 L67.3810154,39.5762188 L67.3810154,30.5840625 L58.8415231,30.5840625 L58.8415231,39.5762188 Z" id="Fill-7" fill="#3B97D3"></path>
                    <path d="M72.3994923,39.5762188 L80.9405692,39.5762188 L80.9405692,30.5840625 L72.3994923,30.5840625 L72.3994923,39.5762188 Z" id="Fill-8" fill="#3B97D3"></path>
                    <path d="M85.9606308,39.5762188 L94.4969538,39.5762188 L94.4969538,30.5840625 L85.9606308,30.5840625 L85.9606308,39.5762188 Z" id="Fill-9" fill="#3B97D3"></path>
                    <path d="M45.2819692,55.1065469 L53.8214615,55.1065469 L53.8214615,46.1159687 L45.2819692,46.1159687 L45.2819692,55.1065469 Z" id="Fill-10" fill="#F0F1F1"></path>
                    <path d="M58.8415231,55.1065469 L67.3810154,55.1065469 L67.3810154,46.1159687 L58.8415231,46.1159687 L58.8415231,55.1065469 Z" id="Fill-11" fill="#F0F1F1"></path>
                    <path d="M72.3994923,55.1065469 L80.9405692,55.1065469 L80.9405692,46.1159687 L72.3994923,46.1159687 L72.3994923,55.1065469 Z" id="Fill-12" fill="#F0F1F1"></path>
                    <path d="M85.9606308,55.1065469 L94.4969538,55.1065469 L94.4969538,46.1159687 L85.9606308,46.1159687 L85.9606308,55.1065469 Z" id="Fill-13" fill="#F0F1F1"></path>
                    <path d="M4.60647692,67.6021406 L13.1412154,67.6021406 L13.1412154,58.6147187 L4.60647692,58.6147187 L4.60647692,67.6021406 Z" id="Fill-14" fill="#F0F1F1"></path>
                    <path d="M18.1644462,67.6021406 L26.7055231,67.6021406 L26.7055231,58.6147187 L18.1644462,58.6147187 L18.1644462,67.6021406 Z" id="Fill-15" fill="#F0F1F1"></path>
                    <path d="M31.724,67.6021406 L40.2634923,67.6021406 L40.2634923,58.6147187 L31.724,58.6147187 L31.724,67.6021406 Z" id="Fill-16" fill="#F0F1F1"></path>
                    <path d="M45.2819692,67.6021406 L53.8214615,67.6021406 L53.8214615,58.6147187 L45.2819692,58.6147187 L45.2819692,67.6021406 Z" id="Fill-17" fill="#F0F1F1"></path>
                    <path d="M58.8415231,67.6021406 L67.3810154,67.6021406 L67.3810154,58.6147187 L58.8415231,58.6147187 L58.8415231,67.6021406 Z" id="Fill-18" fill="#F0F1F1"></path>
                    <path d="M72.3994923,67.6021406 L80.9405692,67.6021406 L80.9405692,58.6147187 L72.3994923,58.6147187 L72.3994923,67.6021406 Z" id="Fill-19" fill="#F0F1F1"></path>
                    <path d="M85.9606308,67.6021406 L94.4969538,67.6021406 L94.4969538,58.6147187 L85.9606308,58.6147187 L85.9606308,67.6021406 Z" id="Fill-20" fill="#F0F1F1"></path>
                    <path d="M4.60647692,81.1929531 L13.1412154,81.1929531 L13.1412154,72.202375 L4.60647692,72.202375 L4.60647692,81.1929531 Z" id="Fill-21" fill="#F0F1F1"></path>
                    <path d="M18.1644462,81.1929531 L26.7055231,81.1929531 L26.7055231,72.202375 L18.1644462,72.202375 L18.1644462,81.1929531 Z" id="Fill-22" fill="#F0F1F1"></path>
                    <path d="M31.724,81.1929531 L40.2634923,81.1929531 L40.2634923,72.202375 L31.724,72.202375 L31.724,81.1929531 Z" id="Fill-23" fill="#F0F1F1"></path>
                    <path d="M45.2819692,81.1929531 L53.8214615,81.1929531 L53.8214615,72.202375 L45.2819692,72.202375 L45.2819692,81.1929531 Z" id="Fill-24" fill="#F0F1F1"></path>
                    <path d="M58.8415231,81.1929531 L67.3810154,81.1929531 L67.3810154,72.202375 L58.8415231,72.202375 L58.8415231,81.1929531 Z" id="Fill-25" fill="#F0F1F1"></path>
                    <path d="M72.3994923,81.1929531 L80.9405692,81.1929531 L80.9405692,72.202375 L72.3994923,72.202375 L72.3994923,81.1929531 Z" id="Fill-26" fill="#F0F1F1"></path>
                    <path d="M85.9606308,81.1929531 L94.4969538,81.1929531 L94.4969538,72.202375 L85.9606308,72.202375 L85.9606308,81.1929531 Z" id="Fill-27" fill="#F0F1F1"></path>
                    <path d="M4.60647692,95.2698281 L13.1412154,95.2698281 L13.1412154,86.2808281 L4.60647692,86.2808281 L4.60647692,95.2698281 Z" id="Fill-28" fill="#F0F1F1"></path>
                    <path d="M18.1644462,95.2698281 L26.7055231,95.2698281 L26.7055231,86.2808281 L18.1644462,86.2808281 L18.1644462,95.2698281 Z" id="Fill-29" fill="#F0F1F1"></path>
                    <path d="M31.724,95.2698281 L40.2634923,95.2698281 L40.2634923,86.2808281 L31.724,86.2808281 L31.724,95.2698281 Z" id="Fill-30" fill="#F0F1F1"></path>
                    <path d="M45.2819692,95.2698281 L53.8214615,95.2698281 L53.8214615,86.2808281 L45.2819692,86.2808281 L45.2819692,95.2698281 Z" id="Fill-31" fill="#F0F1F1"></path>
                </g>
            </g>
        </g>
    </g>
</svg>