<?xml version="1.0" encoding="UTF-8" standalone="no"?>
<svg width="185px" height="185px" viewBox="0 0 185 185" version="1.1" xmlns="http://www.w3.org/2000/svg" xmlns:xlink="http://www.w3.org/1999/xlink">
    <!-- Generator: Sketch 3.6.1 (26313) - http://www.bohemiancoding.com/sketch -->
    <title>Group 2</title>
    <desc>Created with Sketch.</desc>
    <defs></defs>
    <g id="Welcome" stroke="none" stroke-width="1" fill="none" fill-rule="evenodd">
        <g id="Desktop-HD" transform="translate(-923.000000, -294.000000)">
            <g id="Group-2" transform="translate(923.000000, 294.000000)">
                <circle id="Oval-1" fill="#F2F2F2" cx="92.5" cy="92.5" r="92.5"></circle>
                <g id="Page-1" transform="translate(36.000000, 29.000000)">
                    <path d="M0,112.811784 L112.932906,112.811784 L112.932906,51.0519875 L0,51.0519875 L0,112.811784 Z" id="Fill-1" fill="#5BC7D9"></path>
                    <path d="M56.5007062,0.00070625 L0.00070625,51.2126594 L112.998941,51.2126594 L56.5007062,0.00070625 Z" id="Fill-2" fill="#5BC7D9"></path>
                    <path d="M12.8272656,94.7582687 L98.1299063,94.7582687 L98.1299063,29.1388156 L12.8272656,29.1388156 L12.8272656,94.7582687 Z" id="Fill-3" fill="#F0F1F1"></path>
                    <path d="M56.5007062,92.7844766 L112.933612,112.999117 L112.933612,51.2128359 L56.5007062,92.7844766 Z" id="Fill-4" fill="#3B97D3"></path>
                    <path d="M0,112.998941 L56.4311406,92.7843 L0,51.2126594 L0,112.998941 Z" id="Fill-5" fill="#3B97D3"></path>
                    <path d="M0,112.998941 L112.932906,112.998941 L56.4311406,92.7843 L0,112.998941 Z" id="Fill-6" fill="#5BC7D9"></path>
                    <path d="M29.2369844,49.1345187 L82.8819688,49.1345187 L82.8819688,46.1612062 L29.2369844,46.1612062 L29.2369844,49.1345187 Z" id="Fill-7" fill="#D1D2D4"></path>
                    <path d="M29.2369844,58.4022844 L82.8819688,58.4022844 L82.8819688,55.4307375 L29.2369844,55.4307375 L29.2369844,58.4022844 Z" id="Fill-8" fill="#D1D2D4"></path>
                    <path d="M29.2369844,67.6718156 L82.8819688,67.6718156 L82.8819688,64.7002687 L29.2369844,64.7002687 L29.2369844,67.6718156 Z" id="Fill-9" fill="#D1D2D4"></path>
                </g>
            </g>
        </g>
    </g>
</svg>